<svg width="32" height="32" xmlns="http://www.w3.org/2000/svg" xmlns:svg="http://www.w3.org/2000/svg">
 <!-- Created with SVG-edit - https://github.com/SVG-Edit/svgedit-->
 <g class="layer">
  <title>Layer 1</title>
  <path d="m31.78729,10.884c-0.12633,-0.82112 -1.04221,-1.26327 -1.67384,-1.67383c-1.13695,-0.75797 -2.24231,-1.48435 -3.37926,-2.24232c-2.68446,-1.80016 -5.4005,-3.60032 -8.08495,-5.40049c-0.63164,-0.41056 -1.26328,-0.85271 -1.89491,-1.26327c-0.44215,-0.31582 -1.0422,-0.31582 -1.51593,0c-1.80016,1.20011 -3.63191,2.43181 -5.43207,3.63191l-7.95863,5.30575c-0.6948,0.44215 -1.61067,0.88429 -1.64225,1.83175c-0.03158,1.0422 0,2.11598 0,3.15818l0,5.05309c0,0.91588 -0.1895,1.98966 0.66322,2.55814c2.02124,1.3896 4.07406,2.71604 6.12687,4.07406c2.52655,1.67384 5.0531,3.37926 7.57965,5.0531c0.6948,0.47373 1.3896,0.97903 2.24231,0.41056c0.72639,-0.47373 1.42119,-0.94745 2.14757,-1.42119c2.81079,-1.86333 5.62157,-3.75824 8.43236,-5.62157l3.1266,-2.0844c0.1895,-0.12632 0.41057,-0.25266 0.60006,-0.41057c0.44215,-0.31581 0.63164,-0.75796 0.63164,-1.29485l0,-8.68501c0.03159,-0.3474 0.06317,-0.66322 0.03159,-0.97904c0,-0.03158 0,0.06317 0,0l0,0zm-14.43291,-6.91643l10.64308,7.10592l-4.73727,3.18976l-5.90581,-3.94773l0,-6.34796zm-2.71604,0l0,6.31638l-5.87423,3.94773l-4.76886,-3.15818l10.64309,-7.10592zm-11.71687,9.63247l3.37926,2.27389l-3.37926,2.2739l0,-4.54779zm11.71687,14.18025l-10.64309,-7.10591l4.73728,-3.18977l5.87422,3.94773l0,6.34796l0.03159,0zm1.35802,-8.68501l-4.80045,-3.22135l4.80045,-3.22135l4.80044,3.22135l-4.80044,3.22135zm1.35802,8.68501l0,-6.31637l5.87422,-3.94773l4.73728,3.18976l-10.6115,7.07434l0,0zm11.71686,-9.63246l-3.37925,-2.2739l3.41084,-2.27389l-0.03159,4.54779z" fill="black" id="svg_1"/>
 </g>
</svg>