<?xml version="1.0" encoding="UTF-8" standalone="no"?>
<!-- Generator: Adobe Illustrator 19.0.1, SVG Export Plug-In . SVG Version: 6.00 Build 0)  -->

<svg
   xmlns:dc="http://purl.org/dc/elements/1.1/"
   xmlns:cc="http://creativecommons.org/ns#"
   xmlns:rdf="http://www.w3.org/1999/02/22-rdf-syntax-ns#"
   xmlns:svg="http://www.w3.org/2000/svg"
   xmlns="http://www.w3.org/2000/svg"
   xmlns:sodipodi="http://sodipodi.sourceforge.net/DTD/sodipodi-0.dtd"
   xmlns:inkscape="http://www.inkscape.org/namespaces/inkscape"
   version="1.1"
   id="Layer_1"
   x="20"
   y="20"
   viewBox="0 0 20 20"
   xml:space="preserve"
   inkscape:version="0.92.2 (5c3e80d, 2017-08-06)"
   sodipodi:docname="download.svg"
   width="20"
   height="20"><metadata
     id="metadata4185"><rdf:RDF><cc:Work
         rdf:about=""><dc:format>image/svg+xml</dc:format><dc:type
           rdf:resource="http://purl.org/dc/dcmitype/StillImage" /><dc:title /></cc:Work></rdf:RDF></metadata><defs
     id="defs4183" /><sodipodi:namedview
     pagecolor="#ffffff"
     bordercolor="#666666"
     borderopacity="1"
     objecttolerance="10"
     gridtolerance="10"
     guidetolerance="10"
     inkscape:pageopacity="0"
     inkscape:pageshadow="2"
     inkscape:window-width="1511"
     inkscape:window-height="801"
     id="namedview4181"
     showgrid="false"
     inkscape:zoom="1"
     inkscape:cx="3.5613477"
     inkscape:cy="10.526689"
     inkscape:window-x="87"
     inkscape:window-y="23"
     inkscape:window-maximized="0"
     inkscape:current-layer="Layer_1"
     inkscape:snap-bbox="true"
     inkscape:bbox-paths="true"
     inkscape:object-paths="true"
     inkscape:bbox-nodes="true"
     inkscape:object-nodes="true"><inkscape:grid
       type="xygrid"
       id="grid6076" /></sodipodi:namedview><path
     d="M 5,4 C 4.5,4 4,4.5 4,5 V 6 9 H 4.5 L 5.7773438,7.296875 C 6.7771319,8.0602131 7.835765,8.9565728 8.890625,10 7.8257121,11.0633 6.7761791,11.951675 5.78125,12.707031 L 4.5,11 H 4 v 4 c 0,0.5 0.5,1 1,1 H 9 V 15.5 L 7.2734375,14.205078 c 0.7694556,-1.017192 1.6661066,-2.071597 2.6875,-3.136719 1.0814335,1.078631 1.9811555,2.142841 2.7460935,3.150391 L 11,15.5 V 16 h 3 1 c 0.5,0 1,-0.5 1,-1 v -1 -3 h -0.5 l -1.294922,1.726562 c -1.027093,-0.776945 -2.09236,-1.682985 -3.167969,-2.716796 1.114747,-1.028705 2.187236,-1.9299036 3.191407,-2.7050785 L 15.5,9 H 16 V 5 C 16,4.5 15.5,4 15,4 h -4 v 0.5 l 1.703125,1.2773438 C 11.932647,6.7864834 11.026693,7.8554712 9.9707031,8.9199219 8.9584739,7.8204943 8.0698767,6.7627188 7.3046875,5.7714844 L 9,4.5 V 4 H 6 Z"
     id="path4169"
     inkscape:connector-curvature="0" /></svg>