<svg width="24.000000000000004" height="24.000000000000004" xmlns="http://www.w3.org/2000/svg" xmlns:svg="http://www.w3.org/2000/svg">
 <g class="layer">
  <title>Layer 1</title>
  <g class="layer" id="svg_1" style="vector-effect: non-scaling-stroke;">
   <path d="m11.95043,0.46476c-6.51702,0 -11.79551,5.27849 -11.79551,11.79551c0,5.21951 3.37646,9.62808 8.06518,11.19099c0.58977,0.10321 0.81094,-0.25066 0.81094,-0.56029c0,-0.28014 -0.01474,-1.20904 -0.01474,-2.19691c-2.96362,0.54554 -3.73033,-0.72248 -3.96624,-1.38597c-0.1327,-0.33912 -0.70773,-1.38597 -1.20904,-1.66611c-0.41284,-0.22117 -1.00262,-0.76671 -0.01474,-0.78145c0.9289,-0.01475 1.59239,0.85517 1.81356,1.20904c1.0616,1.78407 2.7572,1.28276 3.43544,0.97313c0.10321,-0.76671 0.41284,-1.28276 0.75196,-1.57765c-2.6245,-0.29489 -5.36696,-1.31225 -5.36696,-5.82403c0,-1.28276 0.45708,-2.34436 1.20904,-3.17004c-0.11795,-0.29489 -0.5308,-1.50393 0.11796,-3.12581c0,0 0.98787,-0.30963 3.24376,1.20904c0.94364,-0.2654 1.94626,-0.3981 2.94888,-0.3981c1.00262,0 2.00524,0.1327 2.94888,0.3981c2.25589,-1.53342 3.24376,-1.20904 3.24376,-1.20904c0.64875,1.62188 0.23591,2.83092 0.11796,3.12581c0.75196,0.82569 1.20904,1.87254 1.20904,3.17004c0,4.52653 -2.7572,5.52914 -5.3817,5.82403c0.42759,0.36861 0.7962,1.07634 0.7962,2.18217c0,1.57765 -0.01474,2.84567 -0.01474,3.24376c0,0.30963 0.22117,0.67824 0.81094,0.56029a11.81467,11.81467 0 0 0 8.03569,-11.19099c0,-6.51702 -5.27849,-11.79551 -11.79551,-11.79551z" fill="black" id="svg_2"/>
  </g>
 </g>
</svg>