<svg width="25" height="28" xmlns="http://www.w3.org/2000/svg" xmlns:svg="http://www.w3.org/2000/svg">
 <g class="layer">
  <title>Layer 1</title>
  <g id="svg_1">
   <path d="m12.5,22.6667c-1.1542,0 -2.1542,-0.2514 -3,-0.754c-0.84279,-0.5007 -1.51661,-1.21 -1.94479,-2.0473c-0.45524,-0.8712 -0.78849,-1.7925 -0.99167,-2.7415c-0.21558,-1.0292 -0.3206,-2.0756 -0.31354,-3.1239c0,-0.8301 0.05417,-1.6236 0.16354,-2.3824c0.10834,-0.7578 0.30938,-1.5282 0.60209,-2.31012c0.2927,-0.78193 0.66979,-1.45985 1.12916,-2.03474c0.47825,-0.58896 1.09662,-1.06836 1.80729,-1.40111c0.74582,-0.35919 1.59372,-0.5383 2.54792,-0.5383c1.1542,0 2.1542,0.25134 3,0.754c0.8428,0.50067 1.5166,1.21 1.9448,2.04726c0.4521,0.86185 0.7823,1.77571 0.9917,2.74151c0.2083,0.9649 0.3135,2.0069 0.3135,3.1239c0,0.8301 -0.0542,1.6236 -0.1635,2.3824c-0.1166,0.7878 -0.3226,1.5622 -0.6146,2.3101c-0.3021,0.7819 -0.6771,1.4599 -1.1292,2.0348c-0.4521,0.5748 -1.05,1.0419 -1.7948,1.4011c-0.7448,0.3592 -1.5937,0.5383 -2.5479,0.5383zm2.2063,-6.3722c0.5977,-0.6001 0.9302,-1.4305 0.9187,-2.2945c0,-0.8927 -0.299,-1.6575 -0.8958,-2.2945c-0.5979,-0.637 -1.3407,-0.9555 -2.2292,-0.9555c-0.8885,0 -1.6312,0.3185 -2.2292,0.9555c-0.58548,0.6068 -0.90882,1.435 -0.8958,2.2945c0,0.8927 0.29896,1.6575 0.8958,2.2945c0.598,0.637 1.3407,0.9555 2.2292,0.9555c0.8885,0 1.624,-0.3185 2.2063,-0.9555zm-2.2063,10.7055c6.9031,0 12.5,-5.8208 12.5,-13c0,-7.17925 -5.5969,-13 -12.5,-13c-6.90313,0 -12.5,5.82075 -12.5,13c0,7.1792 5.59687,13 12.5,13z" fill="currentColor" id="svg_2"/>0.593,-0.028 -0.877,-0.082c0.593,1.85 2.313,3.198 4.352,3.234c-1.595,1.25 -3.604,1.995 -5.786,1.995c-0.376,0 -0.747,-0.022 -1.112,-0.065c2.062,1.323 4.51,2.093 7.14,2.093c8.57,0 13.255,-7.098 13.255,-13.254c0,-0.2 -0.005,-0.402 -0.014,-0.602c0.91,-0.658 1.7,-1.477 2.323,-2.41l0.002,-0.003z&quot; id=&quot;svg_2&quot;/&gt;</g>
 </g>
</svg>