<svg width="24" height="24" xmlns="http://www.w3.org/2000/svg" xmlns:svg="http://www.w3.org/2000/svg" >
 <g class="layer">
  <title>Layer 1</title>
  <g id="svg_1">
   <path d="m23.643,4.937c-0.835,0.37 -1.732,0.62 -2.675,0.733c0.962,-0.576 1.7,-1.49 2.048,-2.578c-0.9,0.534 -1.897,0.922 -2.958,1.13c-0.85,-0.904 -2.06,-1.47 -3.4,-1.47c-2.572,0 -4.658,2.086 -4.658,4.66c0,0.364 0.042,0.718 0.12,1.06c-3.873,-0.195 -7.304,-2.05 -9.602,-4.868c-0.4,0.69 -0.63,1.49 -0.63,2.342c0,1.616 0.823,3.043 2.072,3.878c-0.764,-0.025 -1.482,-0.234 -2.11,-0.583l0,0.06c0,2.257 1.605,4.14 3.737,4.568c-0.392,0.106 -0.803,0.162 -1.227,0.162c-0.3,0 -0.593,-0.028 -0.877,-0.082c0.593,1.85 2.313,3.198 4.352,3.234c-1.595,1.25 -3.604,1.995 -5.786,1.995c-0.376,0 -0.747,-0.022 -1.112,-0.065c2.062,1.323 4.51,2.093 7.14,2.093c8.57,0 13.255,-7.098 13.255,-13.254c0,-0.2 -0.005,-0.402 -0.014,-0.602c0.91,-0.658 1.7,-1.477 2.323,-2.41l0.002,-0.003z" id="svg_2"/>
  </g>
 </g>
</svg>