<svg width="24" height="24" viewBox="0 0 24 24" xmlns="http://www.w3.org/2000/svg"><title>dam-black-24</title><path d="M21 16.972a1.197 1.197 0 0 1-.205-.097c-.595-.356-.901-.428-1.13-.213-.597.56-1.247.55-1.825.098a1.06 1.06 0 0 0-.84-.22v-1.008c.466-.048.924.1 1.298.392.292.229.552.233.851-.048.547-.513 1.07-.433 1.851.008v1.088zm0 2.9a1.197 1.197 0 0 1-.205-.097c-.595-.356-.901-.428-1.13-.213-.597.56-1.247.55-1.825.098a1.06 1.06 0 0 0-.84-.22v-1.008c.466-.048.924.1 1.298.392.292.229.552.233.851-.048.547-.513 1.07-.433 1.851.008v1.088zM11 5h2l3 15h-5V5zM4 19h6v1H4v-1zm0-2h6v1H4v-1zm0-2h6v1H4v-1zm0-2h6v1H4v-1zm0-2h6v1H4v-1zm0-2h6v1H4V9zm0-2h6v1H4V7z" fill="#000" fill-rule="evenodd"/></svg>
