<svg xmlns="http://www.w3.org/2000/svg" width="24" height="24" viewBox="0 0 24 24"><path d="M6.3 15.8l1.5.8h.8l1.5-.8h.9l1.5.8h.8l1.5-.8h.8l1.5.8h.8l1.5-.8h.2c.1-.1.1-.1.2-.1.5-.5.8-1.2.8-1.9 0-1.6-1.3-2.9-2.9-2.9h-.3c-.4 1.4-1.8 1.5-1.8 1.5H9l-.5-.4 1.3-2.2 1.4.8c.9.6 1.3-.2 1.3-.2L14 8.1c.6-1-.7-1.9-1.3-.8l-1 1.7-2.4-1.4c-1.7-1-2.4.6-2.4.6L5 11.4c-.3.7 0 1 0 1h-.9v4.1l1.5-.8h.7v.1zM20.2 17.3h-.7l-1.6.8h-.8l-1.5-.8h-.8l-1.5.8h-.8l-1.5-.8h-.8l-1.6.8h-.7l-1.6-.8h-.8l-1.5.8v1.5l1.5-.8h.8l1.6.8h.7l1.6-.8h.8l1.5.8h.8l1.5-.8h.8l1.5.8h.8l1.6-.8h.7l.8.4v-1.5z"/><circle cx="10.2" cy="4.9" r="1.5"/></svg>